<?xml version="1.0" encoding="utf-8"?>
<!-- Generator: Adobe Illustrator 25.0.1, SVG Export Plug-In . SVG Version: 6.00 Build 0)  -->
<svg version="1.1" id="Capa_1" xmlns="http://www.w3.org/2000/svg" xmlns:xlink="http://www.w3.org/1999/xlink" x="0px" y="0px"
	 viewBox="0 0 400 150" style="enable-background:new 0 0 400 150;" xml:space="preserve">
<path d="M63,8"/>
<g>
	<g>
		<path d="M6.7,61.5V3.2h10.8v58.2H6.7z M6.7,13.2v-10h39.9v10H6.7z M6.7,39.8v-10h31.9v10H6.7z"/>
		<path d="M67.1,62.3c-4.6,0-8.2-1.1-10.8-3.4c-2.6-2.3-3.9-5.5-3.9-9.7c0-4.9,1.7-8.6,5-11.2c3.4-2.6,8.1-3.9,14.3-3.9
			c2.4,0,4.4,0.1,6.2,0.4c1.7,0.2,3.5,0.6,5.3,1.1l-1.8,8.7c-1.8-0.4-3.3-0.6-4.7-0.7c-1.4-0.1-2.9-0.1-4.4-0.1
			c-5.7,0-8.6,1.6-8.6,4.9c0,1.5,0.5,2.6,1.6,3.4c1,0.8,2.6,1.2,4.6,1.2c2.4,0,4.4-0.5,6-1.4c1.6-0.9,2.8-2.1,3.6-3.4
			c0.8-1.4,1.2-2.8,1.2-4.3v-2.7l1.6,11.2h-3.5l1.4-1.3c-0.1,2.5-0.7,4.6-1.7,6.3s-2.6,2.9-4.5,3.8S69.8,62.3,67.1,62.3z M81.8,61.9
			L80.9,49l-0.2-5.7v-8.5c0-2.3-1-4-3-5.1c-2-1.1-4.9-1.7-8.8-1.8l-11.1-0.3l0.8-10.1l9.5,0.1c7.9,0.1,13.7,1.7,17.6,4.7
			c3.8,3,5.7,7.4,5.7,13.1v16.1l6,0.9v9L81.8,61.9z"/>
		<path d="M116.7,62.3c-4.1,0-7.3-1.4-9.6-4.1c-2.3-2.7-3.4-6.6-3.4-11.5V18h11.1v26c0,2.5,0.6,4.4,1.7,5.8c1.1,1.4,2.7,2,4.7,2
			c2.6,0,4.6-1,5.9-3c1.3-2,2-5.4,2-10.1l2.2,14.5H128c-0.7,3-2,5.2-4,6.8S119.6,62.3,116.7,62.3z M129.1,49.2V18h11.1v28.7
			L129.1,49.2z M129.9,61.9l-0.7-10.4v-7.6h11.1v7.7l6,0.9v9L129.9,61.9z"/>
		<path d="M168.9,62.3c-3.3,0-6.2-0.1-8.8-0.3c-2.6-0.2-4.8-0.5-6.7-0.9l1.3-10.6c3.4,0.4,6.3,0.8,8.7,1c2.4,0.2,4.2,0.3,5.5,0.3
			c3.6,0,6.2-0.3,7.8-0.8c1.6-0.5,2.4-1.3,2.4-2.4c0-0.7-0.2-1.2-0.6-1.6c-0.4-0.4-1.1-0.7-2-1l-13.7-4.1c-2.9-0.9-5.1-2.2-6.5-3.9
			c-1.5-1.7-2.2-4-2.2-7c0-4.7,2-8.2,5.9-10.4c3.9-2.3,9.9-3.4,17.9-3.4c1.9,0,3.8,0.1,5.8,0.2c2,0.1,4.1,0.3,6.4,0.6l-1.2,10.3
			c-2.5-0.2-4.7-0.4-6.5-0.5c-1.9-0.1-3.4-0.1-4.7-0.1c-4.1,0-7.1,0.2-9,0.7c-1.9,0.5-2.8,1.3-2.8,2.4c0,0.7,0.2,1.2,0.6,1.6
			c0.4,0.4,1,0.7,1.9,0.9l11.8,3.4c3.7,1.1,6.5,2.5,8.4,4.5c1.8,1.9,2.8,4.4,2.8,7.5c0,4.6-1.8,8.1-5.5,10.3
			C182,61.2,176.4,62.3,168.9,62.3z"/>
		<path d="M199,28.2V18h40.8v10.2H199z M209.5,40.3V4.9h11.1v35.4H209.5z M230.7,62.3c-7.5,0-12.9-1.5-16.2-4.5c-3.3-3-5-7.8-5-14.4
			v-5.7h11.1v4.6c0,3.3,0.9,5.7,2.6,7.2c1.7,1.5,4.5,2.3,8.4,2.3c1.3,0,2.6-0.1,4-0.2c1.4-0.1,3.1-0.3,4.9-0.6l1,10.4
			c-1.8,0.3-3.6,0.6-5.3,0.7C234.5,62.2,232.7,62.3,230.7,62.3z"/>
		<path d="M252,61.5V51.2h16.9v10.3H252z M254.4,28.3V18h24.7v10.3H254.4z M273.1,12.1c-2.1,0-3.8-0.7-5.1-2s-2-3-2-5.1
			c0-2.1,0.7-3.8,2-5.1s3-2,5.1-2s3.8,0.7,5.1,2s2,3,2,5.1c0,2.1-0.7,3.8-2,5.1S275.2,12.1,273.1,12.1z M268,61.5v-41h11.1v41H268z
			 M278.3,61.5V51.2H292v10.3H278.3z"/>
		<path d="M301.5,61.5V18h9.9l1.2,9.2v34.3H301.5z M327.2,61.5V35.9c0-2.6-0.5-4.6-1.6-6.1c-1.1-1.4-2.6-2.1-4.6-2.1
			c-5.6,0-8.4,4-8.4,12.1l-2.5-13.9h3.6c0.4-2.9,1.4-5.1,3-6.5s4-2.2,7.2-2.2c4.6,0,8.1,1.4,10.7,4.2s3.8,6.7,3.8,11.8v28.3H327.2z"
			/>
		<path d="M369.1,62.3c-6.3,0-11.1-2-14.6-5.9s-5.2-9.5-5.2-16.7c0-7.2,1.7-12.7,5.2-16.7c3.4-3.9,8.3-5.9,14.6-5.9s11.1,2,14.6,5.9
			c3.4,3.9,5.2,9.5,5.2,16.7c0,7.2-1.7,12.7-5.2,16.7S375.4,62.3,369.1,62.3z M369.2,51.8c2.5,0,4.5-1,5.8-3.1s2.1-5.1,2.1-8.9
			c0-3.9-0.7-6.8-2.1-8.9c-1.4-2.1-3.3-3.1-5.9-3.1c-2.5,0-4.5,1-5.9,3.1c-1.4,2.1-2.1,5-2.1,8.9c0,3.8,0.7,6.8,2.1,8.9
			S366.6,51.8,369.2,51.8z"/>
		<path d="M5.2,88.2v-10h38.3v10H5.2z M12.5,133.7l-7.3-7.2l31-45.9l7.3,7.6L12.5,133.7z M5.2,136.5v-10h39.1v10H5.2z"/>
		<path d="M67.1,137.3c-4.6,0-8.2-1.1-10.8-3.4c-2.6-2.3-3.9-5.5-3.9-9.7c0-4.9,1.7-8.6,5-11.2s8.1-3.9,14.3-3.9
			c2.4,0,4.4,0.1,6.2,0.4c1.7,0.2,3.5,0.6,5.3,1.1l-1.8,8.7c-1.8-0.4-3.3-0.6-4.7-0.7s-2.9-0.1-4.4-0.1c-5.7,0-8.6,1.6-8.6,4.9
			c0,1.5,0.5,2.6,1.6,3.4c1,0.8,2.6,1.2,4.6,1.2c2.4,0,4.4-0.5,6-1.4c1.6-0.9,2.8-2.1,3.6-3.4c0.8-1.4,1.2-2.8,1.2-4.3v-2.7
			l1.6,11.2h-3.5l1.4-1.3c-0.1,2.5-0.7,4.6-1.7,6.3s-2.6,2.9-4.5,3.8S69.8,137.3,67.1,137.3z M81.8,136.9L80.9,124l-0.2-5.7v-8.5
			c0-2.3-1-4-3-5.1c-2-1.1-4.9-1.7-8.8-1.8l-11.1-0.3l0.8-10.1l9.5,0.1c7.9,0.1,13.7,1.7,17.6,4.7c3.8,3,5.7,7.4,5.7,13.1v16.1
			l6,0.9v9L81.8,136.9z"/>
		<path d="M104.6,136.5V93h9.9l1.2,9.2v34.3H104.6z M130.3,136.5v-25.6c0-2.6-0.5-4.6-1.6-6.1c-1.1-1.4-2.6-2.1-4.6-2.1
			c-5.6,0-8.4,4-8.4,12.1l-2.5-13.9h3.6c0.4-2.9,1.4-5.1,3-6.5c1.6-1.4,4-2.2,7.2-2.2c4.6,0,8.1,1.4,10.7,4.2
			c2.5,2.8,3.8,6.7,3.8,11.8v28.3H130.3z"/>
		<path d="M176.1,137.3c-7.5,0-13.3-1.9-17.4-5.8s-6.2-9.5-6.2-16.8c0-7.1,1.7-12.6,5.2-16.6s8.4-5.9,14.7-5.9
			c6.2,0,11,1.8,14.4,5.5c3.4,3.6,5.1,8.9,5.1,15.9c0,2-0.1,3.8-0.2,5.6h-31.9v-7.7h21.2c0-2.9-0.7-5.2-2.2-6.7
			c-1.5-1.6-3.6-2.3-6.3-2.3c-2.9,0-5.1,1-6.7,3.1s-2.4,5-2.4,8.8c0,4.1,1.2,7.2,3.5,9.4c2.4,2.1,5.7,3.2,10.1,3.2
			c2,0,3.9-0.1,5.8-0.3c1.9-0.2,3.9-0.5,5.9-0.8l1.1,10.5c-2.8,0.5-5.3,0.8-7.6,0.9S177.9,137.3,176.1,137.3z"/>
		<path d="M199,103.2V93h40.8v10.2H199z M209.5,115.3V79.9h11.1v35.4H209.5z M230.7,137.3c-7.5,0-12.9-1.5-16.2-4.5
			c-3.3-3-5-7.8-5-14.4v-5.7h11.1v4.6c0,3.3,0.9,5.7,2.6,7.2c1.7,1.5,4.5,2.3,8.4,2.3c1.3,0,2.6-0.1,4-0.2s3.1-0.3,4.9-0.6l1,10.4
			c-1.8,0.3-3.6,0.6-5.3,0.7C234.5,137.2,232.7,137.3,230.7,137.3z"/>
		<path d="M248.3,103.2V93H289v10.2H248.3z M258.7,115.3V79.9h11.1v35.4H258.7z M279.9,137.3c-7.5,0-12.9-1.5-16.2-4.5
			s-5-7.8-5-14.4v-5.7h11.1v4.6c0,3.3,0.9,5.7,2.6,7.2s4.5,2.3,8.4,2.3c1.3,0,2.6-0.1,4-0.2s3.1-0.3,4.9-0.6l1,10.4
			c-1.8,0.3-3.6,0.6-5.3,0.7S281.9,137.3,279.9,137.3z"/>
		<path d="M319.9,137.3c-6.3,0-11.1-2-14.6-5.9s-5.2-9.5-5.2-16.7c0-7.2,1.7-12.7,5.2-16.7s8.3-5.9,14.6-5.9s11.1,2,14.6,5.9
			s5.2,9.5,5.2,16.7c0,7.2-1.7,12.7-5.2,16.7S326.2,137.3,319.9,137.3z M320,126.8c2.5,0,4.5-1,5.8-3.1s2.1-5.1,2.1-8.9
			c0-3.9-0.7-6.8-2.1-8.9s-3.3-3.1-5.9-3.1c-2.5,0-4.5,1-5.9,3.1s-2.1,5-2.1,8.9c0,3.8,0.7,6.8,2.1,8.9S317.4,126.8,320,126.8z"/>
	</g>
</g>
</svg>
